# Blender 3.1.0
# www.blender.org
mtllib BrokenFence2.mtl
o Cube.001
v -4.153238 -0.072166 0.041606
v -4.153238 2.005941 0.041606
v -4.153238 -0.072166 -0.041606
v -4.153238 2.005941 -0.041606
v -3.860880 -0.072166 0.041606
v -3.860880 2.005941 0.041606
v -3.860880 -0.072166 -0.041606
v -3.860880 2.005941 -0.041606
v -4.079061 2.177156 0.020493
v -4.079061 2.177156 -0.020493
v -3.935057 2.177156 -0.020493
v -3.935057 2.177156 0.020493
v -4.043117 2.208220 0.010263
v -4.043117 2.208220 -0.010263
v -3.971001 2.208220 -0.010263
v -3.971001 2.208220 0.010263
vn -0.1462 -0.0000 -0.0000
vn -0.0000 -0.0000 -0.0416
vn 0.1462 -0.0000 -0.0000
vn -0.0000 -0.0000 0.0416
vn -0.0000 -1.0391 -0.0000
vn 0.0451 0.9883 -0.0000
vn -0.0000 1.0315 0.0050
vn -0.0451 0.9883 -0.0000
vn -0.0000 0.9883 0.0129
vn -0.0000 0.9883 -0.0129
vn -0.0000 1.0391 -0.0000
vn -0.0000 1.0315 -0.0050
vn 0.0176 1.0315 -0.0000
vn -0.0176 1.0315 -0.0000
vt 0.375000 0.000000
vt 0.375000 1.000000
vt 0.125000 0.750000
vt 0.625000 0.000000
vt 0.625000 1.000000
vt 0.375000 0.250000
vt 0.125000 0.500000
vt 0.625000 0.250000
vt 0.375000 0.750000
vt 0.625000 0.750000
vt 0.375000 0.500000
vt 0.625000 0.500000
vt 0.625000 1.000000
vt 0.625000 0.000000
vt 0.625000 0.250000
vt 0.625000 0.500000
vt 0.625000 0.750000
vt 0.625000 1.000000
vt 0.875000 0.750000
vt 0.625000 0.000000
vt 0.875000 0.500000
vt 0.625000 0.250000
vt 0.625000 0.500000
vt 0.625000 0.750000
s 0
usemtl Material.002
f 1/1/1 2/4/1 4/8/1 3/6/1
f 3/6/2 4/8/2 8/12/2 7/11/2
f 7/11/3 8/12/3 6/10/3 5/9/3
f 5/9/4 6/10/4 2/5/4 1/2/4
f 3/7/5 7/11/5 5/9/5 1/3/5
f 6/10/6 8/12/6 11/16/6 12/17/6
f 9/13/7 12/17/7 16/24/7 13/18/7
f 4/8/8 2/4/8 9/14/8 10/15/8
f 2/5/9 6/10/9 12/17/9 9/13/9
f 8/12/10 4/8/10 10/15/10 11/16/10
f 15/23/11 14/21/11 13/19/11 16/24/11
f 11/16/12 10/15/12 14/22/12 15/23/12
f 12/17/13 11/16/13 15/23/13 16/24/13
f 10/15/14 9/14/14 13/20/14 14/22/14
o Cube.004
v -4.102594 0.357250 0.037263
v -4.102594 0.778113 0.037263
v -4.102594 0.357250 -0.022513
v -4.102594 0.778113 -0.022513
v 0.052673 0.357250 0.037263
v 0.052673 0.778113 0.037263
v 0.052673 0.357250 -0.022513
v 0.052673 0.778113 -0.022513
vn -2.0776 -0.0000 -0.0000
vn -0.0000 -0.0000 -0.0299
vn 2.0776 -0.0000 -0.0000
vn -0.0000 -0.0000 0.0299
vn -0.0000 -0.2104 -0.0000
vn -0.0000 0.2104 -0.0000
vt 0.375000 0.000000
vt 0.375000 1.000000
vt 0.125000 0.750000
vt 0.625000 0.000000
vt 0.625000 1.000000
vt 0.875000 0.750000
vt 0.375000 0.250000
vt 0.125000 0.500000
vt 0.625000 0.250000
vt 0.875000 0.500000
vt 0.375000 0.750000
vt 0.625000 0.750000
vt 0.375000 0.500000
vt 0.625000 0.500000
s 0
usemtl Material.003
f 17/25/15 18/28/15 20/33/15 19/31/15
f 19/31/16 20/33/16 24/38/16 23/37/16
f 23/37/17 24/38/17 22/36/17 21/35/17
f 21/35/18 22/36/18 18/29/18 17/26/18
f 19/32/19 23/37/19 21/35/19 17/27/19
f 24/38/20 20/34/20 18/30/20 22/36/20
o Cube.002
v -4.112731 1.506955 0.037263
v -4.079424 1.926499 0.037263
v -4.112731 1.506955 -0.022513
v -4.079424 1.926499 -0.022513
v 0.029503 1.178106 0.037263
v 0.062810 1.597650 0.037263
v 0.029503 1.178106 -0.022513
v 0.062810 1.597650 -0.022513
vn -2.0711 0.1644 -0.0000
vn -0.0000 -0.0000 -0.0299
vn 2.0711 -0.1644 -0.0000
vn -0.0000 -0.0000 0.0299
vn -0.0167 -0.2098 -0.0000
vn 0.0167 0.2098 -0.0000
vt 0.375000 0.000000
vt 0.375000 1.000000
vt 0.125000 0.750000
vt 0.625000 0.000000
vt 0.625000 1.000000
vt 0.875000 0.750000
vt 0.375000 0.250000
vt 0.125000 0.500000
vt 0.625000 0.250000
vt 0.875000 0.500000
vt 0.375000 0.750000
vt 0.625000 0.750000
vt 0.375000 0.500000
vt 0.625000 0.500000
s 0
usemtl Material.003
f 25/39/21 26/42/21 28/47/21 27/45/21
f 27/45/22 28/47/22 32/52/22 31/51/22
f 31/51/23 32/52/23 30/50/23 29/49/23
f 29/49/24 30/50/24 26/43/24 25/40/24
f 27/46/25 31/51/25 29/49/25 25/41/25
f 32/52/26 28/48/26 26/44/26 30/50/26
o Cube.003
v -3.691805 -0.328144 -0.652852
v -3.356178 -0.414042 -0.891812
v -3.670709 -0.364336 -0.610211
v -3.335082 -0.450235 -0.849172
v -2.828740 1.028515 0.071675
v -2.493113 0.942617 -0.167285
v -2.807644 0.992322 0.114315
v -2.472017 0.906424 -0.124645
v -2.406168 1.020492 -0.124912
v -2.788831 1.118428 0.147538
v -2.812884 1.159693 0.098922
v -2.430220 1.061757 -0.173528
vn -0.4315 -0.6783 -0.3623
vn 0.0105 -0.0181 0.0213
vn -0.4311 -0.6751 -0.3628
vn -0.0105 0.0181 -0.0213
vn -0.1678 0.0429 0.1195
vn 0.1678 -0.0429 -0.1195
vn 0.4315 0.6783 0.3623
vn -0.4269 -0.4579 -0.1775
vn -0.1922 -0.5160 -0.3429
vn 0.4308 0.6741 0.3627
vt 0.375000 0.000000
vt 0.375000 1.000000
vt 0.125000 0.750000
vt 0.625000 0.000000
vt 0.625000 1.000000
vt 0.875000 0.750000
vt 0.375000 0.250000
vt 0.125000 0.500000
vt 0.625000 0.250000
vt 0.875000 0.500000
vt 0.375000 0.750000
vt 0.625000 0.750000
vt 0.375000 0.500000
vt 0.625000 0.500000
vt 0.625000 0.500000
vt 0.375000 0.500000
vt 0.375000 0.750000
vt 0.625000 0.750000
s 0
usemtl Material.003
f 33/53/27 34/56/27 36/61/27 35/59/27
f 35/59/28 36/61/28 40/66/28 39/65/28
usemtl Material.004
f 38/64/29 37/63/29 43/69/29 44/70/29
usemtl Material.003
f 37/63/30 38/64/30 34/57/30 33/54/30
f 35/60/31 39/65/31 37/63/31 33/55/31
f 40/66/32 36/62/32 34/58/32 38/64/32
usemtl Material.004
f 42/68/33 41/67/33 44/70/33 43/69/33
usemtl Material.003
f 37/63/34 39/65/34 42/68/34 43/69/34
f 40/66/35 38/64/35 44/70/35 41/67/35
usemtl Material.004
f 39/65/36 40/66/36 41/67/36 42/68/36
o Cube.006
v -0.133228 -0.072166 0.041606
v -0.133228 2.005941 0.041606
v -0.133228 -0.072166 -0.041606
v -0.133228 2.005941 -0.041606
v 0.159130 -0.072166 0.041606
v 0.159130 2.005941 0.041606
v 0.159130 -0.072166 -0.041606
v 0.159130 2.005941 -0.041606
v -0.059051 2.177156 0.020493
v -0.059051 2.177156 -0.020493
v 0.084953 2.177156 -0.020493
v 0.084953 2.177156 0.020493
v -0.023106 2.208220 0.010263
v -0.023106 2.208220 -0.010263
v 0.049009 2.208220 -0.010263
v 0.049009 2.208220 0.010263
vn -0.1462 -0.0000 -0.0000
vn -0.0000 -0.0000 -0.0416
vn 0.1462 -0.0000 -0.0000
vn -0.0000 -0.0000 0.0416
vn -0.0000 -1.0391 -0.0000
vn 0.0451 0.9883 -0.0000
vn -0.0000 1.0315 0.0050
vn -0.0451 0.9883 -0.0000
vn -0.0000 0.9883 0.0129
vn -0.0000 0.9883 -0.0129
vn -0.0000 1.0391 -0.0000
vn -0.0000 1.0315 -0.0050
vn 0.0176 1.0315 -0.0000
vn -0.0176 1.0315 -0.0000
vt 0.375000 0.000000
vt 0.375000 1.000000
vt 0.125000 0.750000
vt 0.625000 0.000000
vt 0.625000 1.000000
vt 0.375000 0.250000
vt 0.125000 0.500000
vt 0.625000 0.250000
vt 0.375000 0.750000
vt 0.625000 0.750000
vt 0.375000 0.500000
vt 0.625000 0.500000
vt 0.625000 1.000000
vt 0.625000 0.000000
vt 0.625000 0.250000
vt 0.625000 0.500000
vt 0.625000 0.750000
vt 0.625000 1.000000
vt 0.875000 0.750000
vt 0.625000 0.000000
vt 0.875000 0.500000
vt 0.625000 0.250000
vt 0.625000 0.500000
vt 0.625000 0.750000
s 0
usemtl Material.002
f 45/71/37 46/74/37 48/78/37 47/76/37
f 47/76/38 48/78/38 52/82/38 51/81/38
f 51/81/39 52/82/39 50/80/39 49/79/39
f 49/79/40 50/80/40 46/75/40 45/72/40
f 47/77/41 51/81/41 49/79/41 45/73/41
f 50/80/42 52/82/42 55/86/42 56/87/42
f 53/83/43 56/87/43 60/94/43 57/88/43
f 48/78/44 46/74/44 53/84/44 54/85/44
f 46/75/45 50/80/45 56/87/45 53/83/45
f 52/82/46 48/78/46 54/85/46 55/86/46
f 59/93/47 58/91/47 57/89/47 60/94/47
f 55/86/48 54/85/48 58/92/48 59/93/48
f 56/87/49 55/86/49 59/93/49 60/94/49
f 54/85/50 53/84/50 57/90/50 58/92/50
o Cube.005
v -1.272984 0.103892 0.686929
v -1.511829 0.056783 0.343622
v -1.272017 0.044592 0.694394
v -1.510862 -0.002517 0.351087
v 0.178837 0.002156 -0.309168
v -0.060009 -0.044954 -0.652475
v 0.179803 -0.057144 -0.301703
v -0.059042 -0.104254 -0.645010
v -1.218911 0.040871 0.657958
v -1.457756 -0.006239 0.314651
v -1.219877 0.100171 0.650493
v -1.458722 0.053061 0.307186
v -0.127699 -0.099443 -0.597904
v 0.110180 0.006967 -0.262062
v 0.111146 -0.052333 -0.254597
v -0.128665 -0.040143 -0.605369
vn -0.7259 0.0509 0.4980
vn 0.0005 -0.0297 0.0037
vn 0.7259 -0.0509 -0.4980
vn -0.0005 0.0297 -0.0037
vn 0.1194 0.0236 0.1717
vn -0.1194 -0.0236 -0.1717
vt 0.375000 0.000000
vt 0.375000 1.000000
vt 0.125000 0.750000
vt 0.625000 0.000000
vt 0.625000 1.000000
vt 0.875000 0.750000
vt 0.125000 0.500000
vt 0.375000 0.250000
vt 0.875000 0.500000
vt 0.625000 0.250000
vt 0.375000 0.750000
vt 0.625000 0.750000
vt 0.375000 0.500000
vt 0.625000 0.500000
vt 0.134145 0.500000
vt 0.375000 0.259145
vt 0.865855 0.500000
vt 0.625000 0.259145
vt 0.375000 0.990855
vt 0.134145 0.750000
vt 0.865855 0.750000
vt 0.625000 0.990855
vt 0.636823 0.500000
vt 0.625000 0.488177
vt 0.375000 0.761823
vt 0.363177 0.750000
vt 0.363177 0.500000
vt 0.375000 0.488177
vt 0.625000 0.761823
vt 0.636823 0.750000
s 0
usemtl Material.004
f 61/95/51 62/98/51 64/104/51 63/102/51
f 75/122/52 73/118/52 68/108/52 67/107/52
f 67/107/53 68/108/53 66/106/53 65/105/53
f 71/113/54 72/116/54 62/99/54 61/96/54
f 75/121/55 67/107/55 65/105/55 74/120/55
f 70/111/56 64/103/56 62/100/56 72/115/56
usemtl Material.003
f 73/117/56 70/111/56 72/115/56 76/124/56
usemtl Material.004
f 63/101/55 69/109/55 71/114/55 61/97/55
usemtl Material.003
f 74/119/54 76/123/54 72/116/54 71/113/54
usemtl Material.004
f 63/102/52 64/104/52 70/112/52 69/110/52
f 65/105/54 66/106/54 76/123/54 74/119/54
f 68/108/56 73/117/56 76/124/56 66/106/56
usemtl Material.003
f 69/109/55 75/121/55 74/120/55 71/114/55
f 69/110/52 70/112/52 73/118/52 75/122/52
