# Blender 3.1.0
# www.blender.org
mtllib FencePost.mtl
o Cube.006
v -0.133228 -0.072166 0.041606
v -0.133228 2.005941 0.041606
v -0.133228 -0.072166 -0.041606
v -0.133228 2.005941 -0.041606
v 0.159130 -0.072166 0.041606
v 0.159130 2.005941 0.041606
v 0.159130 -0.072166 -0.041606
v 0.159130 2.005941 -0.041606
v -0.059051 2.177156 0.020493
v -0.059051 2.177156 -0.020493
v 0.084953 2.177156 -0.020493
v 0.084953 2.177156 0.020493
v -0.023106 2.208220 0.010263
v -0.023106 2.208220 -0.010263
v 0.049009 2.208220 -0.010263
v 0.049009 2.208220 0.010263
vn -0.1462 -0.0000 -0.0000
vn -0.0000 -0.0000 -0.0416
vn 0.1462 -0.0000 -0.0000
vn -0.0000 -0.0000 0.0416
vn -0.0000 -1.0391 -0.0000
vn 0.0451 0.9883 -0.0000
vn -0.0000 1.0315 0.0050
vn -0.0451 0.9883 -0.0000
vn -0.0000 0.9883 0.0129
vn -0.0000 0.9883 -0.0129
vn -0.0000 1.0391 -0.0000
vn -0.0000 1.0315 -0.0050
vn 0.0176 1.0315 -0.0000
vn -0.0176 1.0315 -0.0000
vt 0.375000 0.000000
vt 0.375000 1.000000
vt 0.125000 0.750000
vt 0.625000 0.000000
vt 0.625000 1.000000
vt 0.375000 0.250000
vt 0.125000 0.500000
vt 0.625000 0.250000
vt 0.375000 0.750000
vt 0.625000 0.750000
vt 0.375000 0.500000
vt 0.625000 0.500000
vt 0.625000 1.000000
vt 0.625000 0.000000
vt 0.625000 0.250000
vt 0.625000 0.500000
vt 0.625000 0.750000
vt 0.625000 1.000000
vt 0.875000 0.750000
vt 0.625000 0.000000
vt 0.875000 0.500000
vt 0.625000 0.250000
vt 0.625000 0.500000
vt 0.625000 0.750000
s 0
usemtl Material.002
f 1/1/1 2/4/1 4/8/1 3/6/1
f 3/6/2 4/8/2 8/12/2 7/11/2
f 7/11/3 8/12/3 6/10/3 5/9/3
f 5/9/4 6/10/4 2/5/4 1/2/4
f 3/7/5 7/11/5 5/9/5 1/3/5
f 6/10/6 8/12/6 11/16/6 12/17/6
f 9/13/7 12/17/7 16/24/7 13/18/7
f 4/8/8 2/4/8 9/14/8 10/15/8
f 2/5/9 6/10/9 12/17/9 9/13/9
f 8/12/10 4/8/10 10/15/10 11/16/10
f 15/23/11 14/21/11 13/19/11 16/24/11
f 11/16/12 10/15/12 14/22/12 15/23/12
f 12/17/13 11/16/13 15/23/13 16/24/13
f 10/15/14 9/14/14 13/20/14 14/22/14
