# Blender 3.1.0
# www.blender.org
mtllib Pickaxe.mtl
o Cube
v -0.032102 0.018506 0.032102
v -0.032102 0.978547 0.032102
v -0.032102 0.018506 -0.032102
v -0.032102 0.978547 -0.032102
v 0.032102 0.018506 0.032102
v 0.032102 0.978547 0.032102
v 0.032102 0.018506 -0.032102
v 0.032102 0.978547 -0.032102
v -0.060427 0.086250 0.060427
v -0.060427 0.086250 -0.060427
v 0.060427 0.086250 -0.060427
v 0.060427 0.086250 0.060427
v -0.035629 0.867449 0.035629
v -0.035629 0.867449 -0.035629
v 0.035629 0.867449 -0.035629
v 0.035629 0.867449 0.035629
v -0.035032 0.886237 0.035032
v -0.035032 0.886237 -0.035032
v 0.035032 0.886237 -0.035032
v 0.035032 0.886237 0.035032
v -0.030542 0.885033 -0.030542
v -0.031062 0.868653 -0.031062
v 0.030542 0.885033 -0.030542
v 0.031062 0.868653 -0.031062
v 0.030542 0.885033 0.030542
v 0.031062 0.868653 0.031062
v -0.031062 0.868653 0.031062
v -0.030542 0.885033 0.030542
v -0.046628 0.585101 -0.046628
v 0.046628 0.585101 -0.046628
v 0.046628 0.585101 0.046628
v -0.046628 0.585101 0.046628
vn -0.0290 0.2058 -0.0000
vn -0.0000 0.2058 -0.0290
vn 0.0290 0.2058 -0.0000
vn -0.0000 0.2058 0.0290
vn -0.0000 -0.4800 -0.0000
vn -0.0000 0.4800 -0.0000
vn -0.0000 -0.4740 0.0051
vn 0.0051 -0.4740 -0.0000
vn -0.0000 -0.4740 -0.0051
vn -0.0051 -0.4740 -0.0000
vn -0.0000 0.2416 0.0277
vn 0.0277 0.2416 -0.0000
vn -0.0000 0.2416 -0.0277
vn -0.0277 0.2416 -0.0000
vn -0.0006 0.4799 -0.0000
vn 0.0006 -0.4799 -0.0000
vn -0.0000 0.4799 0.0006
vn -0.0006 -0.4799 -0.0000
vn 0.0006 0.4799 -0.0000
vn -0.0000 -0.4799 -0.0006
vn -0.0000 -0.4799 0.0006
vn -0.0000 0.4799 -0.0006
vn -0.0297 0.1835 -0.0000
vn -0.0000 0.1835 -0.0297
vn 0.0297 0.1835 -0.0000
vn -0.0000 0.1835 0.0297
vt 0.125000 0.750000
vt 0.375000 1.000000
vt 0.375000 0.000000
vt 0.625000 0.000000
vt 0.625000 1.000000
vt 0.875000 0.750000
vt 0.125000 0.500000
vt 0.375000 0.250000
vt 0.625000 0.250000
vt 0.875000 0.500000
vt 0.375000 0.750000
vt 0.625000 0.750000
vt 0.375000 0.500000
vt 0.625000 0.500000
vt 0.392641 0.000000
vt 0.392641 1.000000
vt 0.392641 0.250000
vt 0.392641 0.500000
vt 0.392641 0.750000
vt 0.596069 0.000000
vt 0.596069 1.000000
vt 0.596069 0.250000
vt 0.596069 0.500000
vt 0.596069 0.750000
vt 0.600962 0.000000
vt 0.600962 1.000000
vt 0.600962 0.250000
vt 0.600962 0.500000
vt 0.600962 0.750000
vt 0.600962 0.250000
vt 0.596069 0.250000
vt 0.600962 0.500000
vt 0.596069 0.500000
vt 0.600962 0.750000
vt 0.596069 0.750000
vt 0.596069 1.000000
vt 0.596069 0.000000
vt 0.600962 0.000000
vt 0.600962 1.000000
vt 0.461258 0.250000
vt 0.461258 0.500000
vt 0.461258 0.750000
vt 0.461258 0.000000
vt 0.461258 1.000000
s 0
usemtl Material.001
f 17/25/1 2/4/1 4/9/1 18/27/1
f 18/27/2 4/9/2 8/14/2 19/28/2
f 19/28/3 8/14/3 6/12/3 20/29/3
f 20/29/4 6/12/4 2/5/4 17/26/4
f 3/7/5 7/13/5 5/11/5 1/1/5
f 8/14/6 4/10/6 2/6/6 6/12/6
f 5/11/7 12/19/7 9/16/7 1/2/7
f 7/13/8 11/18/8 12/19/8 5/11/8
f 3/8/9 10/17/9 11/18/9 7/13/9
f 1/3/10 9/15/10 10/17/10 3/8/10
f 31/42/11 16/24/11 13/21/11 32/44/11
f 30/41/12 15/23/12 16/24/12 31/42/12
f 29/40/13 14/22/13 15/23/13 30/41/13
f 32/43/14 13/20/14 14/22/14 29/40/14
f 14/22/15 13/20/15 27/37/15 22/31/15
f 19/28/16 20/29/16 25/34/16 23/32/16
f 13/21/17 16/24/17 26/35/17 27/36/17
f 17/25/18 18/27/18 21/30/18 28/38/18
f 26/35/4 25/34/4 28/39/4 27/36/4
f 24/33/3 23/32/3 25/34/3 26/35/3
f 22/31/2 21/30/2 23/32/2 24/33/2
f 27/37/1 28/38/1 21/30/1 22/31/1
f 16/24/19 15/23/19 24/33/19 26/35/19
f 18/27/20 19/28/20 23/32/20 21/30/20
f 20/29/21 17/26/21 28/39/21 25/34/21
f 15/23/22 14/22/22 22/31/22 24/33/22
f 9/15/23 32/43/23 29/40/23 10/17/23
f 10/17/24 29/40/24 30/41/24 11/18/24
f 11/18/25 30/41/25 31/42/25 12/19/25
f 12/19/26 31/42/26 32/44/26 9/16/26
o Cube.001
v -0.027158 0.951250 0.204664
v -0.027601 1.002313 0.205458
v -0.031956 0.951181 0.124269
v -0.033885 1.011813 0.121663
v 0.026019 0.951435 0.204687
v 0.025576 1.002481 0.205481
v 0.030712 0.952887 0.124468
v 0.029118 1.013446 0.121852
v -0.052829 1.017900 -0.073181
v -0.046893 0.967622 -0.064596
v 0.038324 0.976856 -0.064289
v 0.033182 1.027119 -0.072747
v -0.065444 0.960802 -0.399109
v -0.060936 0.942543 -0.392690
v 0.041536 0.967070 -0.393989
v 0.037161 0.985349 -0.400196
v -0.034986 0.917956 -0.531881
v -0.031836 0.906985 -0.528036
v 0.023277 0.922501 -0.529007
v 0.020128 0.933468 -0.532852
v -0.012872 0.894541 -0.600184
v -0.011522 0.889965 -0.598534
v 0.011522 0.896617 -0.598978
v 0.010172 0.901193 -0.600628
v 0.034203 1.019693 -0.238379
v -0.064269 1.002258 -0.238450
v -0.057302 0.964667 -0.227851
v 0.040672 0.982078 -0.227917
v -0.022964 0.956459 0.316993
v -0.023305 0.998174 0.317519
v 0.021232 0.998312 0.317539
v 0.021573 0.956610 0.317014
v 0.028596 0.907410 0.448730
v 0.028469 0.941821 0.448508
v 0.066564 0.941932 0.448527
v 0.066691 0.907538 0.448748
v 0.042589 0.838836 0.529548
v 0.042556 0.847807 0.529491
v 0.052488 0.847837 0.529495
v 0.052522 0.838869 0.529553
vn -0.0520 -0.0010 0.0035
vn -0.0038 0.0520 0.0028
vn 0.0521 0.0010 0.0027
vn 0.0521 0.0004 0.0020
vn 0.0009 -0.0522 -0.0004
vn -0.0008 0.0518 0.0063
vn -0.0104 0.0497 -0.0118
vn -0.0519 -0.0032 0.0044
vn 0.0520 0.0034 0.0019
vn 0.0038 -0.0517 -0.0056
vn 0.0503 0.0095 -0.0101
vn -0.0512 -0.0097 0.0027
vn 0.0513 0.0097 -0.0009
vn 0.0107 -0.0508 0.0056
vn -0.0135 0.0462 -0.0201
vn 0.0125 -0.0484 0.0149
vn -0.0123 0.0476 -0.0176
vn -0.0495 -0.0153 -0.0065
vn 0.0039 -0.0166 -0.0493
vn -0.0482 -0.0174 -0.0097
vn 0.0497 0.0101 -0.0121
vn 0.0139 -0.0479 0.0155
vn 0.0075 -0.0516 -0.0005
vn 0.0517 0.0069 0.0005
vn -0.0516 -0.0067 0.0038
vn -0.0074 0.0515 -0.0034
vn 0.0494 0.0004 -0.0169
vn -0.0521 -0.0005 0.0020
vn 0.0002 -0.0521 0.0024
vn -0.0002 0.0521 0.0019
vn 0.0001 -0.0398 -0.0338
vn 0.0002 -0.0489 -0.0183
vn -0.0486 -0.0004 0.0190
vn -0.0002 0.0479 0.0207
vn -0.0000 0.0003 0.0522
vn -0.0514 -0.0001 0.0088
vn -0.0001 0.0340 0.0395
vn 0.0514 0.0002 0.0092
vt 0.375000 0.000000
vt 0.125000 0.750000
vt 0.625000 0.000000
vt 0.875000 0.750000
vt 0.375000 0.250000
vt 0.125000 0.500000
vt 0.875000 0.500000
vt 0.625000 0.250000
vt 0.375000 0.750000
vt 0.625000 0.750000
vt 0.375000 0.500000
vt 0.625000 0.500000
vt 0.625000 0.250000
vt 0.875000 0.500000
vt 0.125000 0.500000
vt 0.375000 0.250000
vt 0.375000 0.500000
vt 0.625000 0.500000
vt 0.875000 0.500000
vt 0.625000 0.250000
vt 0.125000 0.500000
vt 0.375000 0.250000
vt 0.375000 0.500000
vt 0.625000 0.500000
vt 0.875000 0.500000
vt 0.625000 0.250000
vt 0.375000 0.250000
vt 0.125000 0.500000
vt 0.375000 0.500000
vt 0.625000 0.500000
vt 0.875000 0.500000
vt 0.625000 0.250000
vt 0.375000 0.250000
vt 0.125000 0.500000
vt 0.375000 0.500000
vt 0.625000 0.500000
vt 0.625000 0.500000
vt 0.625000 0.250000
vt 0.875000 0.500000
vt 0.125000 0.500000
vt 0.375000 0.250000
vt 0.375000 0.500000
vt 0.125000 0.750000
vt 0.375000 0.000000
vt 0.625000 0.000000
vt 0.875000 0.750000
vt 0.625000 0.750000
vt 0.375000 0.750000
vt 0.125000 0.750000
vt 0.375000 0.000000
vt 0.625000 0.000000
vt 0.875000 0.750000
vt 0.625000 0.750000
vt 0.375000 0.750000
vt 0.125000 0.750000
vt 0.375000 0.000000
vt 0.625000 0.000000
vt 0.875000 0.750000
vt 0.625000 0.750000
vt 0.375000 0.750000
s 0
usemtl Material.002
f 33/45/27 34/47/27 36/52/27 35/49/27
f 36/51/28 40/56/28 44/62/28 41/58/28
f 39/55/29 40/56/29 38/54/29 37/53/29
f 37/53/30 38/54/30 63/91/30 64/92/30
f 35/50/31 39/55/31 37/53/31 33/46/31
f 40/56/32 36/51/32 34/48/32 38/54/32
f 58/83/33 57/81/33 48/68/33 45/63/33
f 35/49/34 36/52/34 41/57/34 42/60/34
f 40/56/35 39/55/35 43/61/35 44/62/35
f 39/55/36 35/50/36 42/59/36 43/61/36
f 48/68/37 47/67/37 51/73/37 52/74/37
f 59/85/38 58/82/38 45/64/38 46/66/38
f 57/81/39 60/86/39 47/67/39 48/68/39
f 60/86/40 59/84/40 46/65/40 47/67/40
f 49/69/41 52/74/41 56/80/41 53/75/41
f 47/67/42 46/65/42 50/72/42 51/73/42
f 45/63/43 48/68/43 52/74/43 49/69/43
f 46/66/44 45/64/44 49/70/44 50/71/44
f 54/77/45 53/76/45 56/80/45 55/79/45
f 50/71/46 49/70/46 53/76/46 54/77/46
f 52/74/47 51/73/47 55/79/47 56/80/47
f 51/73/48 50/72/48 54/78/48 55/79/48
f 43/61/49 42/59/49 59/84/49 60/86/49
f 44/62/50 43/61/50 60/86/50 57/81/50
f 42/60/51 41/57/51 58/82/51 59/85/51
f 41/58/52 44/62/52 57/81/52 58/83/52
f 64/92/53 63/91/53 67/97/53 68/98/53
f 34/47/54 33/45/54 61/88/54 62/89/54
f 33/46/55 37/53/55 64/92/55 61/87/55
f 38/54/56 34/48/56 62/89/56 63/91/56
f 65/93/57 68/98/57 72/104/57 69/99/57
f 61/87/58 64/92/58 68/98/58 65/93/58
f 62/89/59 61/88/59 65/94/59 66/95/59
f 63/91/60 62/90/60 66/96/60 67/97/60
f 72/104/61 71/103/61 70/102/61 69/100/61
f 66/95/62 65/94/62 69/100/62 70/101/62
f 67/97/63 66/96/63 70/102/63 71/103/63
f 68/98/64 67/97/64 71/103/64 72/104/64
